<svg xmlns="http://www.w3.org/2000/svg" preserveAspectRatio="xMidYMid meet" version="1.0" viewBox="0 0 7500 7500" zoomAndPan="magnify">
  <defs>
    <clipPath id="a">
      <path d="M1061 1317h5550v4725h-5550Zm0 0" clip-rule="nonzero"/>
    </clipPath>
    <clipPath id="b">
      <path d="M1964 2300h2175v2250H1964Zm0 0" clip-rule="nonzero"/>
    </clipPath>
  </defs>
  <path d="M-750-750h9000v9000h-9000" fill="#fff" fill-opacity="1"/>
  <path d="M-750-750h9000v9000h-9000" fill="#fff" fill-opacity="1"/>
  <path d="M7500 3750a3730 3730 0 01-286 1435 3742 3742 0 01-1380 1683 3683 3683 0 01-995 470 3640 3640 0 01-721 144 3730 3730 0 01-2452-614 3849 3849 0 01-568-466 3714 3714 0 01-812-1217A3813 3813 0 01 18 4118a3729 3729 0 01 268-1803 3636 3636 0 01 346-649 3849 3849 0 01 466-568 3714 3714 0 01 1217-812A3771 3771 0 01 3750 0a3729 3729 0 01 2083 632 3780 3780 0 01 1035 1034 3690 3690 0 01 470 995 3640 3640 0 01 144 721c12 123 18 245 18 368Zm0 0" fill="#0865ff" fill-opacity="1" fill-rule="nonzero"/>
  <g fill="#fff" fill-opacity="1" fill-rule="nonzero" clip-path="url(#a)">
    <path d="m6595 1570-1 1-177 180-233 240-27 28c-3 3-5 5-10 6a14065 14065 0 00-297 57l-48 10h-4l-10 20-77 138-3 5 1 9v20c0 16-2 30-3 45 0 13 0 27-2 40 0 15-3 30-5 44 0 12-2 23-4 36l-6 43-3 37v2l73 160 12 28c0 2 4 6 4 10a695424 695424 0 01 6 203c0 9-10 17-14 26l-50 74-20 30-6 10-2 2v118l-28 75c-2 5-7 16-7 20l4 35a60 60 0 01-2 22l-8 35V3400l6 74 10 179 3 57v10c0 3-5 8-7 10l-53 66c-8 10-20 20-23 32l-66 141-25 56-2 4c-2 4-8 7-10 13v23a37 37 0 00-13 10c-3 3-5 10-10 12-1 2-6 7-6 10l-2 2-155 32-85 18a38 38 0 00-15 5l-344 200-538 316c-73 43-147 85-220 130l-248 151-483 295-560 337-453 277-185 114-2 1c-3 0-7 5-10 6l-10 5-21 14c-16 12-32 25-43 41l-3 1h-2c-16 0-31-3-47-6-8-2-17-2-25-3-7 0-12-2-18-3h-2c-5 0-7 2-10 6a14 14 0 01-3 3c-7 0-12-7-15-10a26 26 0 00-17-11 827 827 0 00-66-7c-14-1-27 0-40-2s-25-3-38-7c-12-5-24-10-37-10-12-2-27 0-38-3-10-3-17-12-23-20l-62-60c-10-10-22-16-33-25-5-4-10-8-15-10-7-4-11-1-18 0-8 4-13 0-15-7-2-10-10-20-20-12-3 0-6 4-10 4-5 0-6-3-11-5l-17-4c-13-3-24 6-37 7h-1c-15 0-8-16-10-25-2-14-3-26-14-36a92 92 0 00-13-12l-8-7c-11-17 10-54-20-57-10 0-21 0-30-3a16 16 0 01-8-8c-2-4 0-10-4-14-5-8-5-4-10-7h-2a16 16 0 01-3-10c0-16-17-20-30-14-2 0-6 3-10 0-4 0-10-5-13-6l-16-1c-7-3-12-7-20-6h-12c-4-3-10-10-15-10-6 0-10 3-15 0-4 0-7-5-10-6-14-7-25 18-33 25-3 2-7 2-10 2a30 30 0 00-17 10c-6 7-10 18-16 23a45 45 0 01-27 7h-1c-8-1-15-10-20-15-4-3-3-12-2-17 3-7 8-14 12-20a10 10 0 01 6-5c4 0 10 5 12-2a30 30 0 00 0-16l-6-13c-2-4-4-12 0-16l7-6c0-4 0-10-2-13-4-10-10-16-5-26 0-3 3-3 3-7 0-5 0-10-4-13a263 263 0 01-8-14c-4-5-14-14-12-21 0-5 10-10 6-14-2-3-3-5-3-8 0-6 2-10 7-13 7-6 8-24 5-33a36 36 0 01 0-25 36 36 0 00 5-20c0-5-3-10-3-14l2-20v-3c3-14 0-28 4-40 5-14 10-24 9-38v-37l3-17c0-5 0-10 3-16 2-7 9-12 12-18 10-18-20-13-30-14-11-2-22-17-12-27 8-10 20 0 28-8 8-7 17-10 25-16 7-5 10-12 16-17 2-2 5-7 8-8 5 0 13 0 17-3l6-4a82 82 0 00 35-14c10-8 9-20 13-32a59 59 0 01 20-22 40 40 0 01 12-7c7-2 15 0 20-7 3-8 6-17 15-20 6-3 12-3 17-8l12-8a50 50 0 00 16-15c4-7 7-18 2-25s-8-10-4-20c2-3 10-5 13-10 3-1 5-4 9-5 5 0 10 3 14 3 5 0 9-6 15-7 9 0 16-2 23-8l10-12c6-5 13-10 10-18a37 37 0 00-10-15c-4-4-12-10-18-10-4-2-10-1-15-4a54 54 0 01-11-10c-5-4-10-13-18-12-8 0-20 6-25-2-4-4-7-12-3-17 6-10 18-14 24-24 6-10 2-20 9-30l10-13c4-6 4-12 7-17a40 40 0 01 14-20c5-1 12 0 16-4a41 41 0 00 8-13c4-10 8-17 13-25 4-5 8-12 15-8 14 8 20-6 28-12 5-3 10-3 15-4 7-1 10-5 15-10 2-4 6-8 10-5 4 3 6 6 8 10 4 8 10 10 17 10 10 2 16 0 25-3 5-3 10-5 13-10 0-3 3-7 6-7 2-1 5 0 9 2l16 4c2 0 4 3 6 4l10 5c6 2 10 0 14 4l16 4c10 3 22 6 34 3 7-2 17-10 10-20l-10-15a20 20 0 00-17-10c-5 0-10 0-15-2a23 23 0 01-12-6c-3-4-2-10-8-12-5-2-10-3-14-8h-2l-2-2c-6-18 18-32 26-45 4-8 8-16 15-20 10 0 17-10 27-20 7 0 8-10 10-13l6-6c6-3 12-4 16-10l12-11c7-6 14-8 22-5l12 8c8 3 16 0 22-6 12-10 14-23 17-37-1-10 9-15 9-24 0-4 3-10 10-10 0-3 5-3 10-6 4-2 4-10 8-16 0-6 3-11 7-13 6-6 10-13 13-20l6-7c4-2 8-4 10-7 5-7 0-14-10-16-10-2-12-7-14-16a38 38 0 01 0-15c0-8-3-14-4-20-2-10 0-10 7-15 8-5 13-30-4-24-4 0-8 2-11 0-4-2-4-4-6-10l-10-10c-2-4 0-8-2-12l-8-16c-5-12-2-16 4-24 3-5 10-12 8-20 0-8-8-11-16-15-5-2-10-3-13-7-5-4-6-10-10-12-6-5-14-5-20-7l-7-7c-2 2-5 0-3-2l-3-2-5-10c-4-4-10-7-12-14 0-5 0-10-4-14-5-7-12-5-20 0s-14 6-23 8h-10c-2-2-7-7-11-6-7 0-10 3-18 0-10-6-12-16-2-23a64 64 0 01 20-8 90 90 0 00 26-12c5-4 10-8 13-14 4-6 0-10-4-16-3-4-7-10-5-16 3-10 10-8 18-4 6 4 12 10 20 8 6-2 10-10 10-18 0-5 0-21-10-11-3 0-4 2-5 3a15 15 0 01-10 4l-4-2a28 28 0 00-18-6c-10 0-15-12-23-16-10-4-13-8-14-18 0-8-2-16-12-17h-10c-6 0-15 2-12 10a20 20 0 01 3 10c0 8-10 18-15 22a24 24 0 01-10 5c-7 0-13-2-20-1-7-1-16 9-24 5a14 14 0 01-4-4c-2-3-6-4-10-5a28 28 0 00-20 0c-10 4-17 5-26 0a28 28 0 00-20-4c-5 0-8 2-10 0-10-4-20 8-30 5-4-1-10-4-13-1l-5 4a10 10 0 01-8 3c-12-2-20-7-30-13a46 46 0 00-30-4h-2l-2-1c-4-10-5-21-8-30a147 147 0 00-13-32c-4-10-12-20-13-32 2-10 7-22 3-32 0-11-8-22-10-34l-10-30c-1-10-1-18-5-28-2-4-4-11-7-15-6-7-7-14-10-21-4-2-7-7-6-10l5-4c6-2 3-16 3-20 0-14 0-28 4-40 0-4 2-6 5-8 8-7 10-14 8-24 0-13-10-25-10-40-3-10 10-12 3-22a21 21 0 01 0-23c3-4 10-6 12-10l6-17c3-6 7-11 10-20a20 20 0 01 2-10c10-10 22-13 28-20 6-8 0-22-4-30l-10-17a357 357 0 01-12-21c-2-5-13-23-3-26l-2-20v-14a80 80 0 00 0-26v-6c0-4-5-3-6-6-3-4-2-8-2-13v-16c0-5 0-10 3-13 6-7-12-13-16-15-8-5-14-15-20-22a67 67 0 00-24-25 60 60 0 01-20-12 30 30 0 00-14-6c-8-2-13 0-18 6a5 5 0 01-8 0c-5-10-4-15 0-24 2-15-6-18-17-25a17 17 0 01-10-16c0-10-14 0-15-10 0-3 5-5 10-7a62 62 0 00 27-25c6-7 10-17 6-26-2-3-6-6-6-10-2-6 0-13 6-20l13-2c7-3 7-10 10-14 5-4 10-7 10-12l7-10c8-12 20-22 15-40-3-13-10-25-14-40l-16-34c0-4 0-8 3-8 8 0 14 4 20 3a40 40 0 00 22-8c10-10 17-20 23-33 2-5 3-10 7-14l10-10a40 40 0 01 14-16s-1-2-1-2h2l9 3a30 30 0 00 20-3l16-10c7-4 18-10 26-6 7 3 10 10 10 19 0 6-2 10-4 17-3 10 0 18 12 20 14 4 30 4 44 6 12 0 24 3 33 10 5 4 10 10 12 15 3 6 6 14 10 18 10 8 20 0 20-12l5-17c6-15 3-26 0-40-1-8 3-17 7-24 8-16 20-32 40-36 9-3 19 4 29 6 3 0 20 4 20-5l-7-14a20 20 0 01 10-20c6-4 15 0 22 0 7 3 16 7 24 5 4 0 10-2 10-7l2-10c0-7 0-17 7-24 7-8 6-13 2-23-2-3 0-6 0-10 0-4 6-6 4-13 2-5-2-10-4-14-3-8-5-18-1-26 5-8 6-14 0-21-3-3-6-6-7-10a18 18 0 01 5-20c4-4 10-6 10-14v-2c3-6 0-16 6-20 4-4 8 0 10 0 3 3 12 3 15 4a30 30 0 01 10 3c6 5 27 20 30 3 0-6 4-12 10-13 4 0 10 0 13-3l13-8c10-11 20 7 32 7 8 0 17-6 25-3 8 5 24 22 33 13 7-5 12-10 18-10 10 0 20 2 30-4 5-4 15-10 10-20a10 10 0 01-3-7c0-4 2-6 3-10 0-7-5-17-13-20-4 0-8 0-10-5-4-10-2-30-18-30-7 2-15 10-20 4a11 11 0 01-3-14c2-1 7-6 6-10a86 86 0 00-2-10c0-5-3-13-10-16-7-4-15-3-20-12-4-10-3-20-7-27-4-7-10-14-10-22a36 36 0 00 0-22l-6-15a22 22 0 01 5-20c3-5 10-10 10-14l10-18c6-13 12-27 13-41 0-15-10-24-13-37a38 38 0 01 3-27c6-12 15-23 23-33l7-12c8-6 5-14 2-20-4-10-8-20-3-30a46 46 0 01 16-20c10-10 23-25 20-40-5-10-7-17-2-23 4-6 13 2 16 5 10 8 24 6 35 10 13 5 25 13 40 18l38 15c17 5 34 8 50 5 12-2 25 2 36 4 7 0 12 3 20 4 3 0 10 0 13 3 10 3 17 9 25 19l18 14c6 4 12 4 18 5 6 0 10 5 10 10a32 32 0 01-4 22c-4 8-13 15-15 24-2 10 4 14 13 17 4 0 8 3 10 7l15 10c2 2 6 8 8 8h5v2c15-2 10-32 26-37 10-2 18 0 27 3 7 5 14 9 20 8 10 0 15-5 22-7h59l16 3c16 3 32 6 50 7l40 8c14 3 27 4 38 10 14 4 26-7 35-16 10-10 20-18 30-25 10-8 24-14 36-22 20-14 44-33 70-33 10-1 17-1 24-5 5-2 10-6 17-7 10-2 20 2 30 2 27 0 53-10 78-20a324 324 0 00 83-37c10-5 20-15 33-14 10 0 30 0 38-6 10-10 17-21 28-26 4-3 10-10 15-10l7-3a80 80 0 01 23-7c10 0 14 0 20-6 10-7 19-15 30-18H3200c8 0 15 0 22-3 10-4 20-5 30-2 14 5 26 8 40 10 14 2 30 2 43 5 13 2 27 6 40 10 12 3 26 5 38 10l40 20c13 4 26 7 37 15 10 7 18 14 26 22l60 64c10 10 20 24 34 30 14 5 30 10 44 10 28 3 55 0 83 2 26 2 54 0 80-3 13-2 28 0 40 0l44 4a545 545 0 01 100 24c7 2 13 6 20 7 16 3 30-2 45-6l46-14c12-3 24-7 36-8h43c6 0 12-2 20 0h20c13 0 30-4 44-8l40-10c12-3 24-7 37-8 12 0 25 0 37-2 10 0 20-2 27-6l14-8a40 40 0 01 15-4l17-2c28-2 57 0 82-13 12-7 23-12 36-16 14-4 27-10 40-15l37-21 37-11c14-7 22-17 33-26a90 90 0 01 27-13c25-10 53-3 78-13 14-7 24-18 36-28 9-7 20-12 30-18 12-6 22-14 33-22a58 58 0 01 25-17h2l13-4 26-18c10-7 19-16 29-20 10-5 20-10 30-10 14 0 27-2 40-3 16-2 30-5 43-14l28-20c6-2 12-7 18-8 5 0 12 0 17-2 10-5 19-15 29-20 10-7 20-10 30-13a83 83 0 00 38-10c10-3 20-10 33-10 6 0 10 0 14 5l16 10c10 6 15-4 23-8a87 87 0 01 50-8c27 4 50 17 78 14l36 3 34 9 42 7c5 0 13 0 17 3 5 0 9 2 10 5 7 5 10 10 17 13s13 6 20 6 12-10 18-13c12-7 22-4 34-6h40c26-2 53 4 80 6 13 0 26-3 38-3l17-2h16a90 90 0 00 40-12l20-10c4-2 10 0 13-2 13-6 24-12 37-12a100 100 0 01 19-4l17 2h22a70 70 0 00 20-5c10-4 23-5 34-6 30-3 56-16 85-20 27-6 54-16 80-25l44-20c10-4 23-6 32-12 0-1 2-3 3-1l2-5c0-4 4-4 7-10 3-3 4-10 8-14 7-10 20-15 30-22 10-6 17-13 24-24l14-22c3-4 15-16 19-5 4 10-8 24-8 35 0 10 18 0 23 2 6 0 10 5 14 7 9 5 10-3 17-6 3-2 10-3 10 2 2 7 0 10 7 15l12 6c4 2 6 8 10 10 3 4 8 5 12 7 5 3 10 8 10 14 4 10-4 14-8 22-10 14 0 27 4 40 4 9 13 19 12 29 0 10-16 20-8 30l8 8 5 3 4 4c0 7-2 10-7 15Zm0 0"/>
    <path d="m6593 1567-158 158A141044 141044 0 00 6161 2000v8l-2 3-104 20c-60 10-118 22-177 33l-60 10c-2 2-6 3-10 3s-3 4-4 6l-77 137-10 20v51l-3 40c0 16-1 32-4 48l-4 36c-1 14-4 27-6 40-2 22-6 43-6 64v2l4-1v-1c0-13 2-25 3-38l6-43 4-36c2-14 5-30 5-43l2-41c0-15 4-30 4-44v-20c0-2-3-10-2-11 0-2 2-4 3-5l70-138 10-20h4l48-10 173-30c40-10 83-16 125-24 4 0 6-3 9-6l27-27 233-234 177-177c-1 0-3-3-1-4Zm-816 1197-2-46c0-4-3-8-4-10l-12-28-73-160v-2h-3v2l54 122 30 67a55 55 0 01 4-2v16l6 165v24c0 5 1 3-2 7l-40 60-44 66c-2 3-5 7-5 10v110c0 14-10 32-16 47-4 14-10 27-15 40 0 6-5 12-5 18l4 39c1 9 0 14-3 24-3 13-7 25-6 38 0 20 1 38 3 56l16 283-2 3-10 12-26 34-43 53-4 8-10 25-38 80-30 86-4 7c-3 7-9 10-10 18v9c1 7-7 7-12 10a45 45 0 00-10 11c-4 6-14 15-15 22v2l1 2s2 0 2-2c0-3 6-8 7-10 4-2 6-9 10-12a37 37 0 01 11-10 20 20 0 00 10-10v-12c1-6 7-10 10-13v-4a700 700 0 00 26-56l66-141c4-10 15-20 23-32l53-66c2-4 8-9 8-12v-10l-4-57-10-180-5-76v-29l7-35a60 60 0 00 2-20l-4-37a80 80 0 01 7-20l27-76c2-4 1-8 1-12v-100l2-2 6-10c7-7 14-18 20-28l50-73c4-10 14-17 13-27l-4-157ZM5440 4095l-237 50c-27 6-50 23-74 37-154 90-308 180-462 272l-490 286-137 82L3700 5030l-524 320-540 329c-130 78-258 158-387 237l-91 55-2 10h-1c-1 0 0 5 2 3l3-1 185-114 455-280 553-337 483-295 250-153c71-44 145-86 218-130l538-317 344-200a38 38 0 01 15-6l85-18 154-30c2 0 1-4-1-4ZM2159 5971h-2v1h-1l-2 2-12 6c-10 4-17 11-26 17l-23 20a88 88 0 00-21 22v3h3c10-17 27-30 43-42l20-14 10-5c4 0 8-6 10-6h3v-3h-2Zm-87 68a280 280 0 01-50-7 170 170 0 00-21-2l-20-4v1s0 3 6 3h3l18 3c9 0 18 1 26 3a233 233 0 00 46 7h3l-2-4Zm-94-12h-3c-2 0-4 0-5 2-5 0-10 0-15-10-7-7-10-12-21-14a246 246 0 00-38-5l-43-3c-14 0-28 0-42-3-13-2-25-7-38-12-10-3-23-4-34-4h-21c-7 0-14-10-20-15-20-20-40-43-61-60-10-10-20-18-30-25-8-6-17-15-27-19-3-2-7-3-10-2-6 1-14 10-18-2-3-9-4-14-15-16h-8c-7 4-12 5-20 0l-10-2c-6 0-12-3-20-2-18 0-26 7-35 7-1 0-2 3 0 4 14 0 25-10 38-7l17 4c4 2 7 5 12 5 3 0 6-3 9-4 10-6 18 3 20 12 0 8 8 10 15 8 7-2 10-5 18-1 6 2 10 6 15 10l33 25 62 60c6 7 14 16 23 20h38c14 0 26 6 38 10 13 5 25 6 38 8 14 2 27 0 40 2a827 827 0 01 67 7c8 1 12 4 17 10 0 3 6 11 13 10 0 0 3 0 4-3 2-3 4-4 10-4h-1l-1-4Zm-525-173c-8 0-6-10-6-15v-14a53 53 0 00-11-28c-7-8-16-13-23-20-6-5-5-15-4-21l-11-18c0-6-1-14-7-17-8-5-17-5-26-5-8 0-21 0-23-12a35 35 0 00-2-10c-2-3-4-6-7-7-3 0-7 0-8-5v-10c-4-15-23-18-35-10-10 3-11-5-18-7h-15c-7 0-12-7-20-8-5-2-11 3-18 0l-11-8H1200c-7 1-12-6-18-9-3 0-7 0-10 2-10 2-14 12-20 18-4 7-7 7-15 10a40 40 0 00-14 6c-5 4-8 10-12 17-7 13-18 15-30 15-3 0-3 3 0 4 10 0 20 0 27-7 7-5 10-16 16-23 3-5 9-8 15-10 4 0 8 0 10-2 10-7 20-32 34-25 3 1 6 6 10 8h15c6 0 10 5 15 7 3 2 7 2 10 1 9 0 14 3 20 6 6 2 10 0 17 0l14 8c4 2 8 0 10 0 13-6 30-3 30 13 0 3 0 6 3 10h2c5 3 5 0 10 7 3 5 2 10 4 14 2 4 4 6 9 8 8 4 20 3 28 3 33 3 10 40 20 57l10 7 13 12c10 10 12 22 14 36 2 10-5 25 10 25 2 0 2-3 0-3Zm-355-228c-2-8-10-13-8-22 0-7 10-6 9-13a56 56 0 00-6-20c-4 0-3-10 0-20a17 17 0 00 0-10c0-1-7-10-11-20l-10-10c-2-3 0-10 5-10 4-5-2-10-3-14-4-8 10-12 12-20a80 80 0 00 2-23l-3-10c-2-7 0-13 3-20a39 39 0 00 0-27c-2-7 0-13 0-21 3 0 3-3 2-4h-2c-1 0-2 0-2 2 0 7-3 12-2 19l3 15a36 36 0 01-4 20 36 36 0 00 0 25c2 10 0 27-6 33-5 4-8 7-7 13 0 3 0 5 3 8 4 5-5 10-6 14-2 7 8 16 12 20l8 14c3 4 5 8 4 13v7c0 10 8 17 10 26l4 14-7 6c-4 4-2 12 0 16l6 14c2 5 0 12 0 16-1 7-8 2-12 2a10 10 0 00-6 4l-11 20c-2 6-3 15 0 18 6 5 13 14 20 15 3 0 3-3 0-4-3 0-6-5-10-7-5-6-10-8-10-17 0-6 10-25 20-22 14 3 14-17 10-25Zm597-1032c-6-10-11-19-23-22-5-2-13 0-18 0-10-3-10-9-14-14a22 22 0 00-10-7c-3-2-8-3-10-6-2-2-4 0-3 2 4 6 10 7 15 10 5 2 5 7 8 11l12 7h15c8 0 13 5 19 10 3 5 5 12 9 17 6 10-4 17-11 20a65 65 0 01-34-4l-16-4c-4-4-8-2-13-4l-11-5-6-4-17-4c-3 0-6-3-10-2-2 0-4 4-5 7-2 5-8 7-13 10a43 43 0 01-25 4c-8-2-13-2-17-10a27 27 0 00-8-10c-4-4-8 0-10 3-4 6-8 10-15 11-5 0-10 1-14 4-10 6-14 20-27 12-8-4-12 3-16 8-5 8-10 16-13 25a41 41 0 01-8 13c-4 4-10 3-16 5-7 4-11 11-14 20l-6 15-10 15c-7 10-3 20-10 30-5 10-17 13-23 23-3 5 0 13 3 17 6 8 17 3 25 2 8 0 13 8 18 13l10 10c6 2 10 1 16 2 6 0 13 7 18 11a40 40 0 01 10 15c3 7-4 13-10 18l-10 12c-7 6-14 7-23 8-6 1-10 6-16 7-5 0-10-3-14-3-4 0-6 4-10 7-2 3-10 5-12 10-4 7 0 10 4 18 5 7 2 18-2 25-4 6-10 10-16 15l-12 8c-5 5-11 5-17 7-10 4-12 13-16 20-4 8-12 7-20 8a60 60 0 00-32 30c0 10 0 23-10 30a90 90 0 01-30 16c-2 0-3 0-5 3-3 3-11 2-16 3-3 0-6 6-8 8l-16 17-25 16c-8 8-20 0-28 8-11 10-1 25 10 27 10 0 40-4 30 14-3 6-10 10-12 18-3 5-3 10-4 16l-2 17v37c0 14-5 24-10 37-3 13 0 27-2 40l-1 5h2l2-2a200 200 0 00 0-22c0-8 2-16 5-24 2-6 5-11 6-17 3-12 0-23 0-35 0-12 2-25 4-37 0-6 0-10 4-16l7-10c4-5 7-10 6-16 0-7-12-8-17-10-12 0-34 3-30-16 2-11 20-3 28-10 5-3 10-8 15-10a94 94 0 00 13-10c10-5 16-24 30-22 3 0 5 0 8-2 4-4 8-4 13-5l32-16c6-4 8-13 10-20 0-14 10-25 20-34a40 40 0 01 20-6c4 0 7 0 9-3 9-10 10-22 23-25 10-2 17-10 25-15a49 49 0 00 18-31c4-10 4-17-1-26-3-3-10-7 0-13l7-4 5-5c6-5 10-3 15 0 3 0 6 0 9-2a55 55 0 01 19-6c10 0 18-10 25-16 5-6 12-13 14-21 0-10-5-15-10-20a59 59 0 00-22-14h-6a25 25 0 01-14-10l-13-13c-5-7-13-3-22-1-14 2-15-16-6-22l13-11a35 35 0 00 8-12c2-4 0-10 0-14 3-10 14-20 19-30 6-10 5-24 19-30 8-3 13-3 19-11 5-7 6-15 10-22 4-4 10-20 18-17 2 0 5 3 9 2 8 0 14-7 20-12 8-10 20-6 29-13l6-10c4-5 10 12 13 14 6 8 16 8 26 8 9 0 20-5 27-10a16 16 0 00 6-6c2-5 4-6 9-4l7 2c13 2 20 10 33 12 5 0 8 3 12 6h3c5-1 8 0 12 2 15 3 36 6 47-8 6-7 0-15-3-22Zm189-343c-2-3-6-4-10-5-8 0-10-8-12-16v-17c-1-5-10-20-4-23 4-2 7-3 10-7a24 24 0 00 3-12c2-7-2-12-10-14-4-2-13 5-16-3-2-6-5-8-10-13-3-5-1-10-3-16l-10-17c-3-10 14-22 15-33 0-10-5-17-14-20l-13-7c-5-3-8-10-13-15-4-4-10-4-14-6-6 0-10-6-14-9-2 0-3 0-3 2v1l2 1 7 7c6 2 14 2 20 7 4 3 5 8 10 12 3 4 7 5 12 7 8 4 15 7 16 17 0 7-5 14-8 20-6 7-10 12-4 21l8 16c0 4 0 8 2 12 3 4 8 7 10 11 2 5 2 7 6 10h10c16-6 10 20 3 23-7 4-10 6-6 15 0 6 5 12 4 20v14c3 10 6 14 16 16 8 2 14 10 7 16-2 3-6 5-10 7v8a75 75 0 01-10 30 30 30 0 00-10 12c0 7 0 14-6 17l-12 6c-4 2-6 6-10 10-3 10-11 14-14 24-4 14-6 28-18 37-6 5-14 10-22 5-4 0-8-4-12-6-7-3-14 0-21 5l-12 13c-3 5-10 6-15 10-2 0-4 2-5 5-3 7-4 13-10 18-10 7-18 17-28 24-7 5-10 13-15 20-8 14-31 28-26 46l3 2h3l2-3h-2c-5 0 0-13 3-16 2-6 6-10 10-15 8-8 10-17 17-26 4-6 10-8 14-12l14-14c4-4 9-6 12-10 4-4 5-8 6-13 3-7 10-7 16-10 4 1 7-4 10-8 5-5 9-10 17-13 7 0 14 7 20 10s15-2 20-6c10-5 15-12 18-20 3-13 4-26 13-36a70 70 0 00 9-10c6-7 10-10 19-10 8-5 10-10 10-20 0-6 9-13 14-20l10-14c5-10 23-17 10-30Zm-115-232-16-19c-7-6-4-18-12-25-4-5-12-4-17-2l-17 10c-10 1-16 3-25-3a14 14 0 00-10-2c-6 0-8 2-15 0-12-7 2-17 8-20l17-5c13-4 40-17 40-34 0-3-2-6-4-8l-5-8c-2-2-6-14 3-13 7 0 12 7 18 10 15 7 23-10 24-22 0-5 0-12-4-14-10-5-12 0-18 5-7 5-10 0-15-3a20 20 0 00-12-3c-7 0-12-8-18-12-3-3-8-5-12-7-10-5-5-20-10-27a16 16 0 00-12-6c-8 0-25-2-28 7-2 7 4 12 3 19-2 6-7 10-10 15a20 20 0 01-23 5 23 23 0 00-20 4c-22 5-24-3-33-5-10-2-14-4-23 0-5 0-10 4-17 3-4 0-8-4-11-5a24 24 0 00-20-2c-10 2-8-2-14-2l-5 2-16 5c-4 0-8-3-13-3a10 10 0 00-7 3c-4 4-7 5-14 4-10-1-20-10-27-14-10-4-21-3-30-3-2 0-2 4 0 5 10-3 23-1 32 4 10 6 17 10 29 13a10 10 0 00 8-3l6-4c3-3 9 0 12 0 10 4 20-8 29-4 4 2 7 2 10 0 9-1 14 0 20 4 10 5 17 4 27 0a28 28 0 01 20 0c5 0 9 2 10 5 2 0 4 2 5 3 8 4 17-6 25-6 6-1 12 2 18 2 4 0 8-4 10-6 7-4 16-14 16-22a17 17 0 00-3-8c-3-10 6-12 12-13h12c9 2 9 10 10 18 0 10 6 14 15 18 8 4 14 16 23 16 7 0 10 3 17 7 2 2 4 2 6 2 4 0 8-2 10-4l3-3c10-10 12 6 10 10-1 8-3 17-11 19-7 2-13-4-20-8-6-4-14-5-16 5-2 6 2 10 5 15 4 5 8 10 4 16a37 37 0 01-14 14 94 94 0 01-24 12 64 64 0 00-20 8c-11 7-10 17 0 23 8 3 10 0 19 0 4 0 9 4 13 5 2 0 5 2 8 0 10-1 19-1 26-7 7-5 14-7 20 0 2 4 3 10 3 14 0 7 8 10 12 16l4 8h2c0 4 2 6 4 5v-2Zm-410-172-11-2-5-26c-3-20-7-20-12-30-5-20-16-30-17-40 0-10 3-20 0-40-4-10-10-20-13-30a151 151 0 01-8-35 96 96 0 00-8-27c-2-4-4-10-8-15h-1c-3 0-4 2-2 3v2c3 4 5 10 7 15 4 10 4 20 6 30l8 28 14 34c3 10-3 21-1 31 0 12 9 22 14 32 5 10 9 20 12 31 3 10 4 21 8 30 0 2 0 2 2 2s2 0 2-2Zm-25-545-6-13-10-19c-2-3-15-31-10-31v-1c4-9 2-17 0-25 0-12 5-23 3-35 0-4 0-8-2-12 0-1 0-2-2-3-3-2-4-7-4-10-1-7-4-23 0-28v-1c3-2 0-3 0-4a20 20 0 00-5 14v16c0 5 0 9 3 13 0 3 3 2 4 6v6a80 80 0 01 0 26v15c0 3 4 18 0 20-10 2 0 20 3 25a530 530 0 00 20 40c6 6 10 20 6 27-7 8-18 12-25 20a21 21 0 00-3 12c-2 8-6 13-10 20l-5 16c-3 5-10 7-12 10-4 8-5 16 0 23 8 10-6 14-4 23 0 14 9 26 9 40 2 10 0 16-7 22a12 12 0 00-5 7 170 170 0 00-2 40c-1 5 2 20-4 20l-5 5 2 10c4 7 5 14 10 19 3 0 3-1 2-2v-2c-4-6-13-23-7-25 4-2 4-8 4-12v-30l5-20c-2-7 3-8 7-13 10-14-2-40-7-54-2-6-2-10 3-13a17 17 0 00 5-7v-5c-4-7-10-12-5-20 2-5 8-8 10-12 3-2 4-5 5-8l7-15a35 35 0 00 5-10l4-14c3-6 10-10 15-14 3-3 12-8 13-14 2-8-2-15-4-23Zm-25-662h-2c-6 3-10 10-13 15l-11 10c-4 5-5 10-7 15a72 72 0 01-23 33 43 43 0 01-21 7c-6 0-12-4-20-3-4 0-4 5-2 8l16 37c3 12 9 24 13 38 4 17-7 27-15 40a24 24 0 00-5 10c0 6-5 10-10 13-2 5-2 10-10 14-3 0-10 0-12 3-5 6-7 13-5 20 0 5 4 8 6 12 5 8 0 18-6 25-7 10-16 20-28 25-4 2-10 4-10 10 2 7 15 0 14 8 0 8 4 13 10 16 10 7 20 10 18 25-3 10-4 15 0 24 3 3 7 3 9 0 5-7 10-7 18-6 6 0 10 4 15 8 3 6 7 8 16 12 10 4 17 16 23 25 4 7 9 17 19 22 3 2 20 8 15 15v10c2 5 5 0 5 0 4-10-11-14-18-20-10-3-17-20-24-26a60 60 0 00-20-20c-3-2-10-3-12-6l-10-10a35 35 0 00-21-6c-4 0-5 2-8 5-6 9-7-8-6-12 2-8 5-16 0-23-6-6-14-10-20-14-6-4-3-10-5-15 0-4-2-5-5-5-3 0-4 0-6-3a15 15 0 01 6-1 41 41 0 00 12-5 98 98 0 00 20-24 26 26 0 00 4-23c-3-6-7-10-7-17 0-11 10-11 20-15 2 0 4-4 5-6-1-6 3-11 8-15 3-1 4-2 4-5 0-8 5-15 10-21 6-8 10-15 10-24a70 70 0 00-8-33c-6-12-10-25-14-36l-7-16c-4-10 10-4 14-3 18 4 36-13 44-27 9-11 10-24 19-33 6-6 12-20 20-22v-5Zm390-145c0-4 0-10-3-13a48 48 0 01-6-23c0-7 6-12 6-19 2-4 0-9-2-13-7-7-12-16-7-27 0 0 4-6 6-6h2c2-5 5-7 5-10v-6H1700l-2 2c-1 8-6 10-11 14-6 6-6 16-4 24l6 10c7 6 6 12 2 20-5 8-3 18 0 26 0 5 6 10 7 14 2 7-3 10-5 14v10c5 10 6 14-1 22-6 7-6 17-7 25v10c-2 4-8 5-12 6a50 50 0 01-24-4c-14-2-23-5-30 0a20 20 0 00-10 20c0 4 5 10 6 13 3 10-15 6-20 5-11-2-20-9-31-6-18 4-31 20-40 37-3 6-7 15-5 23 3 14 6 25 0 40l-1 18c0 10-10 20-20 12-5-4-8-12-11-18a57 57 0 00-12-15 50 50 0 00-34-10c-15-3-30-3-44-6-12-3-15-10-12-20 2-7 4-12 4-19s-2-16-10-20c-7-5-20 2-25 6l-15 10a22 22 0 01-20 0l-7-2v4h5l13 4c5 0 10 0 15-2 10-4 20-13 30-16 13-7 18 10 16 22-2 18-10 30-4 38 10 14 38 12 54 13 14 1 27 4 38 14 10 7 12 20 20 30 10 10 27 4 28-10 2-8 0-14 2-20s4-10 4-16c2-13-5-24-2-37 2-10 10-22 17-30a43 43 0 01 32-16c10 0 20 8 30 8 5 1 14 1 15-6 0-5-3-10-5-16-3-8 2-16 10-19l13 1c13 3 25 7 38 3 10-3 8-17 9-25 0-7 2-12 6-17a20 20 0 00 6-4v-14c-2-5-6-7-3-14l5-7Zm569-515h-2c-2 0-6-7-8-10l-20-10a46 46 0 00-10-7c-10-3-15-6-13-17 2-10 10-16 16-23a33 33 0 00 6-22 10 10 0 00-10-10c-7-2-13-2-20-6a110 110 0 01-17-15 74 74 0 00-25-20l-14-2-20-4c-10-2-23-6-34-4-17 3-34 0-50-5l-40-15c-13-5-25-13-40-17-10-5-24-3-34-10-3-3-12-12-16-6-5 7-3 14 0 22 4 15-8 30-20 40a46 46 0 00-16 20c-5 10 0 20 3 30 3 6 6 14 0 20l-10 12c-6 10-15 20-20 33a38 38 0 00-4 27c4 13 12 22 12 37 0 14-7 28-13 40l-10 20c0 4-6 8-10 12a22 22 0 00-5 20c0 4 3 8 6 13a40 40 0 01 3 22c0 8 5 15 10 22 2 8 0 20 6 28 4 10 12 8 20 12 6 3 8 10 10 16v10c0 4-3 10-5 12-3 5-2 10 2 14 6 7 14-2 20-3 18-2 16 20 20 30 2 4 6 4 10 5 7 2 13 12 12 20l-3 10c0 2 0 4 3 7 4 8-6 15-10 18-10 6-20 4-30 5-8 0-10 6-16 10-10 10-25-8-33-10-10 1-18 10-26 10-12 0-20-18-33-8l-10 7c-1 3-10 2-12 3-6 0-9 7-10 13-3 18-24 3-30-2a30 30 0 00-10-3c-4 0-13 0-15-3-3-2-7-5-10-2-7 5-3 15-7 22 0 2 3 3 4 0v-1a30 30 0 00 4-8v-8c4-5 12 0 13 2 3 2 8 0 10 0a60 60 0 01 20 10c6 2 14 6 22 4 3 0 5-4 6-6 4-8 0-15 13-16 8 0 10-4 16-10 10-10 20 5 28 8 10 4 20-7 30 0 9 5 18 15 28 12 3 0 5-2 8-5 5-5 8-8 16-8 12 0 18 0 28-6 6-4 13-10 13-17 0-3-2-6-3-8-4-8 0-15 0-20 0-9-6-15-12-19-6-2-10-2-12-10 0-5 0-10-4-16a19 19 0 00-18-10l-10 4s-1 2-2 0h-3c-2 0-3-1-3-2v-2h-2c0-3 2-6 4-8l4-7a36 36 0 00-3-23c-4-10-10-12-20-15-11-3-12-18-13-28-2-12-13-18-10-32 0-10-5-18-8-27-7-15 4-22 13-33 8-10 10-20 17-32 5-10 7-20 8-32 0-10-5-20-10-28-7-16-2-30 7-44l23-30c2-4 4-5 5-10 0-3 0-10-2-13-5-13-10-23-2-36 4-10 16-15 23-25a43 43 0 00 8-28l-2-4s-5-20 6-15c4 2 7 7 12 8 8 4 18 4 27 6l30 15c20 8 43 18 65 24 10 2 20 3 30 2 14 0 24 0 37 2l28 5c10 2 20 8 28 17l20 17 10 4c6 0 10 0 16 2 10 5 2 20-2 26s-10 10-14 18c-7 10-4 20 8 26 6 2 10 4 15 8l10 8 9 10 2 4h4c2 0 2-3 0-3Zm816-230c-6 2-10 8-15 10-10 7-18 18-27 27-8 8-27 7-38 6-10 0-23 10-32 14l-38 20c-15 8-30 13-46 18-25 8-50 20-78 20-10 0-20-5-30-3-6 0-12 5-17 7a72 72 0 01-23 4c-26 0-50 20-70 33l-37 22c-10 7-20 16-30 25-8 9-20 20-34 14-10-5-24-6-36-10a322 322 0 00-42-6c-17 0-33-3-50-5l-14-2h-20a124 124 0 00-40 2c-8 2-14 6-22 7a47 47 0 01-21-6c-10-3-20-5-28-2-14 5-10 35-24 37h-1c0-2-2-2-4-2v5h3c15 0 16-20 20-30 6-11 20-8 30-5 10 3 20 7 32 5 6 0 12-5 18-7l22-2h40c28 7 56 9 84 13l43 10 15 3c3 2 10 0 13 0a37 37 0 00 20-16c10-10 22-20 35-28l37-22c13-10 27-18 42-24 10-5 24-4 36-6 4 0 10-2 14-4 9-5 15-7 25-5 28 5 50-2 75-12l42-13c15-4 30-13 43-20 14-8 27-17 42-23 0-2 9 0 19 0l20-4c10-2 12-13 20-20l18-15 5-5h2c0-2 0-4-3-3Zm1867-94h-2c-2 3-10 4-13 4h-2c-10 3-17 9-24 14-11 8-21 16-34 22-10 6-20 10-30 19-10 10-20 20-34 26-25 10-53 4-78 13a90 90 0 00-27 13c-11 10-20 19-33 24-12 5-25 7-37 12-13 5-24 12-37 18s-26 10-40 15c-13 4-24 10-36 16-25 14-54 10-82 13l-17 2a40 40 0 00-15 3c-5 2-10 6-14 9a110 110 0 01-26 6h-38c-12 2-24 6-37 10l-40 10c-14 4-30 9-45 9l-20-2h-18c-14 2-28 0-43 0l-36 9-46 17c-15 4-30 10-45 6-7 0-13-5-20-7a634 634 0 00-143-27c-13 0-28-3-40-1-27 3-55 5-81 3-28-2-55 0-83-2-15-1-30-5-44-11-13-12-23-25-33-35-20-20-40-43-60-62a203 203 0 00-27-22c-11-10-24-12-36-17l-41-18a446 446 0 00-78-24c-14-3-30-2-43-5a263 263 0 01-40-10 38 38 0 00-30 3 44 44 0 01-22 3h-16c-11 3-20 10-30 18-6 6-11 6-20 7l-23 8-8 5 2 3h4c7-4 13-7 20-8 5-2 10-2 17-3 4 0 7-4 10-7a80 80 0 01 18-12c6-5 12-5 19-5h19l17-7c14-6 30 5 43 8 14 5 27 6 40 7a394 394 0 01 124 36c13 7 29 10 40 17 26 12 46 35 64 55l30 30c8 10 17 20 27 28 19 14 49 17 70 19h122c12-1 24-5 37-3 30 3 60 0 90 8 28 7 58 10 84 24 25 10 49 0 73-7 29-7 57-16 87-14l39-2c13 0 25 2 40 0 26-5 54-13 80-21 26-8 53-3 78-10 13-2 23-13 36-14 13 0 26-3 40-3l37-1c10 0 22-7 32-13 13-7 26-10 40-15 13-3 25-10 37-16 13-6 25-13 39-18 12-4 25-7 37-12 10-5 17-13 24-20 10-10 27-14 40-17s27-2 40-4a87 87 0 00 35-10c8-5 16-14 24-20 10-10 24-16 37-23l24-13c8-6 19-15 30-16v-1c5 0 10-2 14-4v-4Zm668-113-3-2c-4-2-12-2-17-3l-42-7-34-7c-12 0-24-4-36-3-28 3-51-10-78-14a86 86 0 00-33 2 78 78 0 00-16 6c-8 4-12 14-23 8l-16-10a50 50 0 00-13-2 67 67 0 00-33 10 84 84 0 01-38 20 70 70 0 00-30 12c-10 7-18 16-30 20-5 4-10 3-17 4l-18 10c-10 4-19 11-28 20a81 81 0 01-42 12l-40 3a63 63 0 00-30 10c-10 3-20 12-28 20l-26 16v2h4c18-10 33-27 51-38 25-13 56-10 83-13 25-4 40-25 64-34a59 59 0 01 20-6 20 20 0 00 10-3c12-7 20-17 30-20a80 80 0 01 38-15 90 90 0 00 30-10c16-10 31-13 47-6 10 4 14 12 26 7l10-10a53 53 0 01 24-8c14 0 30 0 43 4 12 4 25 8 37 10 13 2 25 0 38 0l56 10 33 6c6 1 20 0 23 5h5v-3Zm750-113v-3h-1c-11 6-27 8-37 13l-44 20c-26 8-53 18-80 23-29 5-55 18-85 20-9 2-23 3-34 7a68 68 0 01-20 5h-20l-17-2a100 100 0 00-20 0c-12 2-23 8-36 10-4 2-10 0-13 3l-17 10a99 99 0 01-41 12h-16c-6 0-10 3-17 3l-38 2c-27-2-55-8-80-6h-40c-13 2-23 0-35 6-5 4-10 10-17 12a34 34 0 01-20-7c-7-4-10-8-16-13l-10-5h-3v4h4c9 3 14 13 22 18 8 3 16 8 25 6 10-3 17-14 27-17 6-2 14 0 20 0 7 0 13-2 20 0h37l43 2c13 0 25 3 38 2l17-2h17c10-3 20 0 32-4 12-3 23-7 34-13 7-3 13-8 21-10l16-4c13-5 27-7 42-8 6 0 11 3 17 3h20c11 0 21-6 33-8l40-5 41-12c17-6 34-7 51-12l26-7c10-1 16-6 25-8 16-5 30-10 46-18l25-11a64 64 0 00 20-8h-4Zm230 125c0-2-1-3-3-4l-5-3a29 29 0 01-8-10c-8-10 7-20 8-30 0-10-8-20-12-28-5-13-13-26-5-40 5-8 12-13 14-22 0-6-6-10-10-13l-14-7c-3-3-5-10-9-10l-12-8c-5-3-5-8-6-14 0-5-8-4-11-2-6 3-8 10-17 6-5-2-8-6-14-7-5-2-23 7-23-2 0-10 12-23 8-33-4-10-16 0-20 5l-13 22a92 92 0 01-25 26c-10 7-22 12-30 22-3 5-4 10-8 15-2 5-5 5-8 7l-2 2h-3c2 0 3 3 2 4v11c2 0 3 0 3-2s7-4 10-6a36 36 0 00 5-10 43 43 0 01 7-10c5-6 13-9 18-10 15-10 27-23 36-38l13-20c3-4 15-14 12 0-2 10-11 20-7 30 2 2 7 2 10 2 16 1 22-4 28 1 5 2 11 10 15 8 2 0 4 0 6-3 3-3 13-13 14-4 0 10 4 11 12 15 3 2 7 5 10 10a20 20 0 00 7 7l12 6c10 6 6 14 0 21-5 6-10 12-10 20 0 13 3 23 10 34 4 10 14 20 8 30a50 50 0 00-8 20c0 1 5 10 8 11 4 3 10 5 10 10 1 4 0 6-4 10 2 3 3 3 2 5 5-5 7-8 7-15Zm-920 965Zm-725-860c2 0 2-1 2-2h-2Zm-2800 4312 2-1h-2Zm0 0Zm-86 67Zm-450-1494Zm-302-1902c2 0 0 0 0 0Zm-5 480a9890 9890 0 01 2 0v-2l-2 2Zm-223 2230v1-4 2Zm0 0"/>
  </g>
  <g clip-path="url(#b)">
    <path d="M2232 3901a126 126 0 00 160 79l832-286c32-10 58-33 72-64 15-30 18-64 7-96l-160-464a126 126 0 00-160-78l-831 285c-66 23-102 95-80 160Zm34-12-160-463a90 90 0 01 0-58l443 166-247 402a90 90 0 01-36-47Zm946-228-830 285a87 87 0 01-46 3l248-403 130 49a18 18 0 00 22-8l73-118 443 166a90 90 0 01-38 26Zm-102-579 160 463c4 20 4 40 0 59l-444-166 247-402c16 10 30 26 36 46Zm-947 229 832-285c10-4 20-5 30-5h16l-329 535-587-220a100 100 0 01 38-25Zm216-693 520 314a17 17 0 00 14 2 17 17 0 00 10-10l75-153 221 60h4a20 20 0 00 15-2 18 18 0 00 0-20L3100 2560l114-235a19 19 0 00-2-19 17 17 0 00-18-6l-796 190a69 69 0 00-20 127ZM2900 2890l-402-243 464 114Zm168-346L2516 2500l650-155Zm-686 9c2-13 10-23 22-27l664 53 118 190-790-193a32 32 0 01-14-32ZM4000 4333a18 18 0 01 34-12l70 207c3 10 0 20-10 22a16 16 0 01-6 2 18 18 0 01-17-13Zm-24-180 17 49c3 9-2 20-12 22a16 16 0 01-6 1 18 18 0 01-16-12l-17-49a413 413 0 00-121-180 18 18 0 01-2-24 18 18 0 01 25-2c60 52 106 119 132 194Zm-286-244a410 410 0 00-274-2l-40 14a16 16 0 01-7 0 18 18 0 01-17-11c-3-10 2-20 10-23l42-14a450 450 0 01 298 2c10 4 14 14 10 23a18 18 0 01-22 10Zm-534 87-280 96h-5a18 18 0 01-17-11c-3-10 2-20 10-23l280-96c10-3 20 2 23 11 3 10-1 20-10 23Zm-481 146c3 10-2 20-11 23l-240 82c-25 8-50 14-78 17h-1a18 18 0 01-18-16c0-10 6-19 16-20 24-2 47-7 70-15l239-82c10-3 20 2 23 11Zm-460 72c10 3 14 13 11 23a18 18 0 01-17 12h-5a346 346 0 01-194-160 18 18 0 01 7-25c9-4 20-1 24 7 38 68 100 118 174 143Zm-249-290a350 350 0 01 90-240 18 18 0 01 27 0c7 6 7 18 0 25a310 310 0 00-81 215c0 10-8 18-18 18a18 18 0 01-18-18Zm1550-746-207 70a16 16 0 01-6 2 18 18 0 01-17-12c-3-10 2-20 10-23l208-70c9-4 20 1 22 10 4 10-1 20-10 23Zm138-85 92-32a300 300 0 00 140-100c7-8 18-10 26-3 8 6 10 17 3 25-40 52-95 90-158 112l-91 32h-6a17 17 0 01-17-11c-4-10 2-20 10-23Zm130-613a18 18 0 01 25-7 341 341 0 01 160 189c6 48 12 98 6 149a18 18 0 01-18 16h-2a18 18 0 01-16-20 304 304 0 00-158-303 18 18 0 01-7-24Zm-533 87c-4-10 1-20 10-23l275-94a350 350 0 01 110-19c10 0 17 8 17 18 0 10-8 18-17 18a300 300 0 00-98 17l-275 94a16 16 0 01-5 0 18 18 0 01-17-11ZM3086 4320c-24-70-20-143 12-208a18 18 0 11 32 16 239 239 0 00 40 265c7 7 7 19 0 25a18 18 0 01-13 5 20 20 0 01-13-5 271 271 0 01-58-98Zm197 140a212 212 0 00 252-160c2-10 12-14 22-12 10 2 15 12 13 20a248 248 0 01-240 193c-18 0-36-3-55-7a18 18 0 01-13-20c2-10 12-17 20-15Zm27-485a260 260 0 01 226 124c5 8 2 20-6 24a18 18 0 01-25-5 223 223 0 00-194-107 18 18 0 01-18-18c0-10 7-18 17-18Zm0 0" fill="#0865ff" fill-opacity="1" fill-rule="nonzero"/>
  </g>
</svg>
